<svg xmlns="http://www.w3.org/2000/svg" xmlns:xlink="http://www.w3.org/1999/xlink" width="500" zoomAndPan="magnify" viewBox="0 0 375 374.999991" height="500" preserveAspectRatio="xMidYMid meet" version="1.0"><defs><g/></defs><g fill="#000000" fill-opacity="1"><g transform="translate(126.769148, 251.222797)"><g><path d="M 10.609375 -79.46875 C 9.191406 -86.238281 7.867188 -91.707031 6.640625 -95.875 C 5.410156 -100.039062 4.273438 -103.332031 3.234375 -105.75 C 2.191406 -108.164062 1.113281 -110.117188 0 -111.609375 L 36.71875 -111.609375 C 35.75 -110.265625 35.226562 -108.382812 35.15625 -105.96875 C 35.082031 -103.550781 35.4375 -100.222656 36.21875 -95.984375 C 37 -91.742188 38.097656 -86.238281 39.515625 -79.46875 L 50.21875 -34.265625 C 50.445312 -33.441406 51.046875 -33.03125 52.015625 -33.03125 C 52.535156 -33.03125 53.035156 -33.195312 53.515625 -33.53125 C 54.003906 -33.875 54.359375 -34.378906 54.578125 -35.046875 C 55.617188 -38.390625 56.046875 -42.144531 55.859375 -46.3125 C 55.671875 -50.476562 55.128906 -54.882812 54.234375 -59.53125 C 53.347656 -64.1875 52.398438 -68.894531 51.390625 -73.65625 C 50.390625 -78.425781 49.535156 -83.113281 48.828125 -87.71875 C 48.117188 -92.332031 47.859375 -96.664062 48.046875 -100.71875 C 48.234375 -104.78125 49.109375 -108.410156 50.671875 -111.609375 L 77.796875 -111.609375 C 76.753906 -108.265625 76.304688 -104.0625 76.453125 -99 C 76.597656 -93.9375 77.171875 -88.445312 78.171875 -82.53125 C 79.179688 -76.613281 80.410156 -70.660156 81.859375 -64.671875 C 83.316406 -58.679688 84.828125 -52.988281 86.390625 -47.59375 C 87.953125 -42.207031 89.398438 -37.539062 90.734375 -33.59375 C 91.109375 -32.695312 91.664062 -32.25 92.40625 -32.25 C 93.15625 -32.25 93.640625 -32.660156 93.859375 -33.484375 C 94.972656 -36.828125 95.4375 -40.597656 95.25 -44.796875 C 95.070312 -49.003906 94.550781 -53.472656 93.6875 -58.203125 C 92.832031 -62.929688 91.882812 -67.75 90.84375 -72.65625 C 89.800781 -77.570312 88.925781 -82.390625 88.21875 -87.109375 C 87.519531 -91.835938 87.257812 -96.285156 87.4375 -100.453125 C 87.625 -104.617188 88.5 -108.335938 90.0625 -111.609375 L 121.4375 -111.609375 C 120.394531 -110.117188 119.332031 -108.164062 118.25 -105.75 C 117.164062 -103.332031 116.03125 -100.039062 114.84375 -95.875 C 113.65625 -91.707031 112.316406 -86.238281 110.828125 -79.46875 L 91.96875 0 L 68.96875 0 L 61.390625 -32.03125 C 60.941406 -33.738281 60.492188 -33.738281 60.046875 -32.03125 L 52.453125 0 L 29.46875 0 Z M 10.609375 -79.46875 "/></g></g></g></svg>