<svg xmlns="http://www.w3.org/2000/svg" xmlns:xlink="http://www.w3.org/1999/xlink" width="500" zoomAndPan="magnify" viewBox="0 0 375 374.999991" height="500" preserveAspectRatio="xMidYMid meet" version="1.0"><defs><g/></defs><g fill="#000000" fill-opacity="1"><g transform="translate(120.798386, 235.795088)"><g><path d="M 8.34375 -4.6875 C 3.957031 -8.59375 1.765625 -13.597656 1.765625 -19.703125 C 1.765625 -25.804688 4.046875 -30.816406 8.609375 -34.734375 C 13.179688 -38.660156 18.828125 -40.625 25.546875 -40.625 C 32.160156 -40.625 37.738281 -38.648438 42.28125 -34.703125 C 46.820312 -30.753906 49.09375 -25.753906 49.09375 -19.703125 C 49.09375 -13.648438 46.875 -8.660156 42.4375 -4.734375 C 38 -0.804688 32.367188 1.15625 25.546875 1.15625 C 18.460938 1.15625 12.726562 -0.789062 8.34375 -4.6875 Z M 18.890625 -26.390625 C 17.117188 -24.648438 16.234375 -22.421875 16.234375 -19.703125 C 16.234375 -16.984375 17.078125 -14.765625 18.765625 -13.046875 C 20.460938 -11.328125 22.695312 -10.46875 25.46875 -10.46875 C 28.132812 -10.46875 30.328125 -11.335938 32.046875 -13.078125 C 33.765625 -14.828125 34.625 -17.035156 34.625 -19.703125 C 34.625 -22.421875 33.738281 -24.648438 31.96875 -26.390625 C 30.195312 -28.140625 28.03125 -29.015625 25.46875 -29.015625 C 22.851562 -29.015625 20.660156 -28.140625 18.890625 -26.390625 Z M 18.890625 -26.390625 "/></g></g></g><g fill="#000000" fill-opacity="1"><g transform="translate(164.417137, 235.795088)"><g><path d="M 4.625 0 L 4.625 -39.484375 L 18.234375 -39.484375 L 18.234375 -33.78125 L 18.390625 -33.78125 C 18.492188 -33.988281 18.660156 -34.242188 18.890625 -34.546875 C 19.117188 -34.859375 19.617188 -35.398438 20.390625 -36.171875 C 21.160156 -36.941406 21.976562 -37.632812 22.84375 -38.25 C 23.71875 -38.863281 24.847656 -39.410156 26.234375 -39.890625 C 27.617188 -40.378906 29.03125 -40.625 30.46875 -40.625 C 31.957031 -40.625 33.421875 -40.421875 34.859375 -40.015625 C 36.296875 -39.609375 37.347656 -39.195312 38.015625 -38.78125 L 39.09375 -38.171875 L 33.390625 -26.625 C 31.703125 -28.0625 29.34375 -28.78125 26.3125 -28.78125 C 24.675781 -28.78125 23.265625 -28.421875 22.078125 -27.703125 C 20.898438 -26.984375 20.066406 -26.109375 19.578125 -25.078125 C 19.097656 -24.054688 18.753906 -23.1875 18.546875 -22.46875 C 18.335938 -21.75 18.234375 -21.1875 18.234375 -20.78125 L 18.234375 0 Z M 4.625 0 "/></g></g></g><g fill="#000000" fill-opacity="1"><g transform="translate(195.495853, 235.795088)"><g><path d="M 49.71875 -39.484375 L 30.9375 -20.625 L 51.5625 0 L 34.015625 0 L 18.234375 -15.78125 L 18.234375 0 L 4.625 0 L 4.625 -66.1875 L 18.234375 -66.1875 L 18.234375 -25.703125 L 32.015625 -39.484375 Z M 49.71875 -39.484375 "/></g></g></g><g fill="#000000" fill-opacity="1"><g transform="translate(237.960612, 235.795088)"><g><path d="M 53.40625 -63.484375 L 53.40625 -22.546875 C 53.40625 -14.742188 51.300781 -8.84375 47.09375 -4.84375 C 42.882812 -0.84375 36.726562 1.15625 28.625 1.15625 C 20.519531 1.15625 14.363281 -0.84375 10.15625 -4.84375 C 5.945312 -8.84375 3.84375 -14.742188 3.84375 -22.546875 L 3.84375 -63.484375 L 18.3125 -63.484375 L 18.3125 -26.78125 C 18.3125 -21.644531 19.117188 -18.078125 20.734375 -16.078125 C 22.347656 -14.078125 24.976562 -13.078125 28.625 -13.078125 C 32.269531 -13.078125 34.898438 -14.078125 36.515625 -16.078125 C 38.128906 -18.078125 38.9375 -21.644531 38.9375 -26.78125 L 38.9375 -63.484375 Z M 53.40625 -63.484375 "/></g></g></g><g fill="#000000" fill-opacity="1"><g transform="translate(287.964775, 235.795088)"><g><path d="M 45.25 -34.578125 C 48.945312 -30.554688 50.796875 -25.617188 50.796875 -19.765625 C 50.796875 -13.921875 48.945312 -8.972656 45.25 -4.921875 C 41.550781 -0.867188 36.859375 1.15625 31.171875 1.15625 C 25.929688 1.15625 21.617188 -0.484375 18.234375 -3.765625 L 18.234375 20.015625 L 4.625 20.015625 L 4.625 -39.484375 L 18.078125 -39.484375 L 18.078125 -35.015625 L 18.234375 -35.015625 C 21.617188 -38.753906 25.929688 -40.625 31.171875 -40.625 C 36.859375 -40.625 41.550781 -38.609375 45.25 -34.578125 Z M 33.671875 -13.078125 C 35.441406 -14.828125 36.328125 -17.0625 36.328125 -19.78125 C 36.328125 -22.5 35.476562 -24.71875 33.78125 -26.4375 C 32.09375 -28.15625 29.863281 -29.015625 27.09375 -29.015625 C 24.425781 -29.015625 22.234375 -28.140625 20.515625 -26.390625 C 18.796875 -24.648438 17.9375 -22.445312 17.9375 -19.78125 C 17.9375 -17.0625 18.816406 -14.828125 20.578125 -13.078125 C 22.347656 -11.335938 24.519531 -10.46875 27.09375 -10.46875 C 29.707031 -10.46875 31.898438 -11.335938 33.671875 -13.078125 Z M 33.671875 -13.078125 "/></g></g></g><g fill="#000000" fill-opacity="1"><g transform="translate(27.816969, 235.840392)"><g><path d="M 9.453125 -70.859375 C 8.191406 -76.890625 7.015625 -81.765625 5.921875 -85.484375 C 4.828125 -89.203125 3.816406 -92.140625 2.890625 -94.296875 C 1.960938 -96.453125 1 -98.191406 0 -99.515625 L 32.734375 -99.515625 C 31.878906 -98.316406 31.414062 -96.640625 31.34375 -94.484375 C 31.28125 -92.328125 31.597656 -89.359375 32.296875 -85.578125 C 32.992188 -81.796875 33.972656 -76.890625 35.234375 -70.859375 L 44.78125 -30.546875 C 44.976562 -29.816406 45.507812 -29.453125 46.375 -29.453125 C 46.84375 -29.453125 47.289062 -29.601562 47.71875 -29.90625 C 48.144531 -30.207031 48.457031 -30.65625 48.65625 -31.25 C 49.59375 -34.226562 49.976562 -37.578125 49.8125 -41.296875 C 49.644531 -45.015625 49.160156 -48.945312 48.359375 -53.09375 C 47.566406 -57.238281 46.722656 -61.429688 45.828125 -65.671875 C 44.929688 -69.921875 44.164062 -74.101562 43.53125 -78.21875 C 42.90625 -82.332031 42.675781 -86.195312 42.84375 -89.8125 C 43.007812 -93.425781 43.789062 -96.660156 45.1875 -99.515625 L 69.359375 -99.515625 C 68.429688 -96.523438 68.035156 -92.773438 68.171875 -88.265625 C 68.304688 -83.753906 68.816406 -78.863281 69.703125 -73.59375 C 70.597656 -68.320312 71.691406 -63.015625 72.984375 -57.671875 C 74.285156 -52.328125 75.628906 -47.25 77.015625 -42.4375 C 78.410156 -37.632812 79.707031 -33.472656 80.90625 -29.953125 C 81.238281 -29.160156 81.738281 -28.765625 82.40625 -28.765625 C 83.0625 -28.765625 83.488281 -29.128906 83.6875 -29.859375 C 84.6875 -32.835938 85.101562 -36.203125 84.9375 -39.953125 C 84.769531 -43.703125 84.304688 -47.679688 83.546875 -51.890625 C 82.785156 -56.109375 81.9375 -60.40625 81 -64.78125 C 80.070312 -69.164062 79.289062 -73.460938 78.65625 -77.671875 C 78.03125 -81.878906 77.800781 -85.84375 77.96875 -89.5625 C 78.132812 -93.28125 78.914062 -96.597656 80.3125 -99.515625 L 108.265625 -99.515625 C 107.335938 -98.191406 106.394531 -96.453125 105.4375 -94.296875 C 104.476562 -92.140625 103.46875 -89.203125 102.40625 -85.484375 C 101.34375 -81.765625 100.144531 -76.890625 98.8125 -70.859375 L 82 0 L 61.5 0 L 54.734375 -28.5625 C 54.335938 -30.082031 53.941406 -30.082031 53.546875 -28.5625 L 46.765625 0 L 26.265625 0 Z M 9.453125 -70.859375 "/></g></g></g></svg>